<svg width="56" height="56" viewBox="0 0 56 56" fill="none" xmlns="http://www.w3.org/2000/svg">
<rect width="56" height="56" rx="8" fill="#F8F7F7"/>
<path d="M33 34.6667L32.8529 35.4021C33.1846 35.4684 33.5196 35.3046 33.6708 35.0021L33 34.6667ZM21.3333 23L20.9979 22.3292C20.6954 22.4804 20.5316 22.8154 20.5979 23.1471L21.3333 23ZM21.9234 22.705L22.2588 23.3758L22.2588 23.3758L21.9234 22.705ZM23.5276 18.4856L24.2239 18.2071L24.2239 18.2071L23.5276 18.4856ZM22.1715 15.0954L21.4751 15.3739L21.4751 15.3739L22.1715 15.0954ZM40.9046 33.8285L40.6261 34.5249L40.6261 34.5249L40.9046 33.8285ZM37.5144 32.4724L37.793 31.7761L37.793 31.7761L37.5144 32.4724ZM33.295 34.0766L33.9658 34.412L33.9658 34.412L33.295 34.0766ZM35.5833 26.3333C35.5833 26.7475 35.9191 27.0833 36.3333 27.0833C36.7475 27.0833 37.0833 26.7475 37.0833 26.3333H35.5833ZM35.8259 23.7821L36.5188 23.4951L36.5188 23.4951L35.8259 23.7821ZM32.2179 20.1741L32.5049 19.4812L32.5049 19.4812L32.2179 20.1741ZM29.6667 18.9167C29.2525 18.9167 28.9167 19.2525 28.9167 19.6667C28.9167 20.0809 29.2525 20.4167 29.6667 20.4167V18.9167ZM42.25 26.3333C42.25 26.7475 42.5858 27.0833 43 27.0833C43.4142 27.0833 43.75 26.7475 43.75 26.3333H42.25ZM41.9851 21.2309L42.678 20.9439L42.678 20.9439L41.9851 21.2309ZM34.7691 14.0149L35.0561 13.322L35.0561 13.322L34.7691 14.0149ZM29.6667 12.25C29.2525 12.25 28.9167 12.5858 28.9167 13C28.9167 13.4142 29.2525 13.75 29.6667 13.75V12.25ZM43 36.9234H42.25V39.6667H43H43.75V36.9234H43ZM16.3333 13V13.75H19.0766V13V12.25H16.3333V13ZM33 34.6667C33.1471 33.9312 33.1473 33.9313 33.1475 33.9313C33.1475 33.9313 33.1477 33.9314 33.1478 33.9314C33.148 33.9314 33.1481 33.9314 33.1481 33.9314C33.1482 33.9315 33.148 33.9314 33.1476 33.9313C33.1468 33.9312 33.145 33.9308 33.1422 33.9302C33.1367 33.929 33.1272 33.927 33.1141 33.9241C33.0878 33.9183 33.0466 33.9089 32.9917 33.8956C32.882 33.8689 32.7177 33.8264 32.5085 33.7649C32.0898 33.6417 31.4933 33.4431 30.7954 33.144C29.3962 32.5443 27.6106 31.5499 26.0303 29.9697L25.5 30.5L24.9697 31.0303C26.7228 32.7834 28.6871 33.8723 30.2046 34.5227C30.965 34.8486 31.6185 35.0666 32.0852 35.2039C32.3188 35.2726 32.5061 35.3212 32.6372 35.3531C32.7028 35.3691 32.7543 35.3808 32.7907 35.3889C32.8089 35.3929 32.8233 35.3959 32.8337 35.3981C32.8389 35.3992 32.8431 35.4001 32.8463 35.4008C32.8479 35.4011 32.8493 35.4014 32.8504 35.4016C32.8509 35.4017 32.8514 35.4018 32.8518 35.4019C32.852 35.4019 32.8523 35.402 32.8524 35.402C32.8527 35.4021 32.8529 35.4021 33 34.6667ZM25.5 30.5L26.0303 29.9697C24.4501 28.3894 23.4557 26.6038 22.856 25.2046C22.5569 24.5067 22.3583 23.9102 22.2351 23.4915C22.1736 23.2823 22.1311 23.118 22.1044 23.0083C22.0911 22.9534 22.0817 22.9122 22.0759 22.8859C22.073 22.8728 22.071 22.8633 22.0698 22.8578C22.0692 22.855 22.0688 22.8532 22.0687 22.8524C22.0686 22.852 22.0685 22.8518 22.0686 22.8519C22.0686 22.8519 22.0686 22.852 22.0686 22.8522C22.0686 22.8523 22.0687 22.8525 22.0687 22.8525C22.0687 22.8527 22.0688 22.8529 21.3333 23C20.5979 23.1471 20.5979 23.1473 20.598 23.1476C20.598 23.1477 20.5981 23.148 20.5981 23.1482C20.5982 23.1486 20.5983 23.1491 20.5984 23.1496C20.5986 23.1507 20.5989 23.1521 20.5992 23.1537C20.5999 23.1569 20.6008 23.1611 20.6019 23.1663C20.6041 23.1767 20.6071 23.1911 20.6111 23.2093C20.6192 23.2457 20.6309 23.2972 20.6469 23.3628C20.6788 23.4939 20.7274 23.6812 20.7961 23.9147C20.9334 24.3815 21.1514 25.035 21.4773 25.7954C22.1277 27.3129 23.2166 29.2772 24.9697 31.0303L25.5 30.5ZM21.3333 23L21.6687 23.6708L22.2588 23.3758L21.9234 22.705L21.588 22.0342L20.9979 22.3292L21.3333 23ZM23.5276 18.4856L24.2239 18.2071L22.8678 14.8168L22.1715 15.0954L21.4751 15.3739L22.8312 18.7641L23.5276 18.4856ZM40.9046 33.8285L41.1832 33.1322L37.793 31.7761L37.5144 32.4724L37.2359 33.1688L40.6261 34.5249L40.9046 33.8285ZM33.295 34.0766L32.6242 33.7412L32.3292 34.3313L33 34.6667L33.6708 35.0021L33.9658 34.412L33.295 34.0766ZM37.5144 32.4724L37.793 31.7761C35.8211 30.9874 33.5739 31.8417 32.6242 33.7412L33.295 34.0766L33.9658 34.412C34.5667 33.2103 35.9884 32.6698 37.2359 33.1688L37.5144 32.4724ZM21.9234 22.705L22.2588 23.3758C24.1583 22.4261 25.0126 20.1789 24.2239 18.2071L23.5276 18.4856L22.8312 18.7641C23.3302 20.0116 22.7897 21.4333 21.588 22.0342L21.9234 22.705ZM19.0766 13V13.75C20.1329 13.75 21.0828 14.3931 21.4751 15.3739L22.1715 15.0954L22.8678 14.8168C22.2477 13.2666 20.7463 12.25 19.0766 12.25V13ZM43 36.9234H43.75C43.75 35.2537 42.7334 33.7523 41.1832 33.1322L40.9046 33.8285L40.6261 34.5249C41.6069 34.9172 42.25 35.8671 42.25 36.9234H43ZM39.6667 43V42.25C25.3533 42.25 13.75 30.6467 13.75 16.3333H13H12.25C12.25 31.4751 24.5249 43.75 39.6667 43.75V43ZM39.6667 43V43.75C41.9218 43.75 43.75 41.9218 43.75 39.6667H43H42.25C42.25 41.0934 41.0934 42.25 39.6667 42.25V43ZM13 16.3333H13.75C13.75 14.9066 14.9066 13.75 16.3333 13.75V13V12.25C14.0782 12.25 12.25 14.0782 12.25 16.3333H13ZM36.3333 26.3333H37.0833C37.0833 25.3594 36.8915 24.3949 36.5188 23.4951L35.8259 23.7821L35.133 24.0691C35.4303 24.787 35.5833 25.5563 35.5833 26.3333H36.3333ZM35.8259 23.7821L36.5188 23.4951C36.1461 22.5953 35.5997 21.7777 34.911 21.089L34.3807 21.6193L33.8504 22.1496C34.3998 22.699 34.8356 23.3513 35.133 24.0691L35.8259 23.7821ZM34.3807 21.6193L34.911 21.089C34.2223 20.4003 33.4047 19.8539 32.5049 19.4812L32.2179 20.1741L31.9309 20.867C32.6487 21.1644 33.301 21.6002 33.8504 22.1496L34.3807 21.6193ZM32.2179 20.1741L32.5049 19.4812C31.6051 19.1085 30.6406 18.9167 29.6667 18.9167V19.6667V20.4167C30.4437 20.4167 31.213 20.5697 31.9309 20.867L32.2179 20.1741ZM43 26.3333H43.75C43.75 24.4839 43.3857 22.6525 42.678 20.9439L41.9851 21.2309L41.2922 21.5179C41.9245 23.0446 42.25 24.6809 42.25 26.3333H43ZM41.9851 21.2309L42.678 20.9439C41.9702 19.2352 40.9328 17.6827 39.6251 16.3749L39.0948 16.9052L38.5644 17.4356C39.7329 18.604 40.6598 19.9912 41.2922 21.5179L41.9851 21.2309ZM39.0948 16.9052L39.6251 16.3749C38.3173 15.0672 36.7648 14.0298 35.0561 13.322L34.7691 14.0149L34.4821 14.7078C36.0088 15.3402 37.396 16.2671 38.5644 17.4356L39.0948 16.9052ZM34.7691 14.0149L35.0561 13.322C33.3475 12.6143 31.5161 12.25 29.6667 12.25V13V13.75C31.3191 13.75 32.9554 14.0755 34.4821 14.7078L34.7691 14.0149Z" fill="#28303F"/>
</svg>
