<svg width="157" height="44" viewBox="0 0 157 44" fill="none" xmlns="http://www.w3.org/2000/svg">
<path d="M11.3808 1V1.864C11.3808 7.496 11.0288 12.5413 10.3248 17H2.64475C3.05008 15.0373 3.25275 12.776 3.25275 10.216C3.25275 7.63467 3.08208 4.56267 2.74075 1H11.3808ZM38.7118 2.952C37.9651 2.824 37.2398 2.76 36.5358 2.76C35.8531 2.76 35.0211 2.87733 34.0398 3.112C33.7198 4.456 33.5598 5.768 33.5598 7.048C33.5598 10.3547 35.0318 12.8933 37.9758 14.664C39.9384 13.3627 41.7091 11.7413 43.2878 9.8C43.3518 10.6533 43.4051 11.9547 43.4478 13.704C41.8691 14.9413 40.2584 15.912 38.6158 16.616C36.9731 17.32 34.9251 17.672 32.4718 17.672H31.7358C29.8158 16.84 28.3011 15.6133 27.1918 13.992C26.1038 12.3707 25.5598 10.664 25.5598 8.872C25.5598 6.48267 26.5411 4.456 28.5038 2.792C30.4664 1.10667 33.3144 0.264 37.0478 0.264C39.1384 0.264 41.3251 0.530666 43.6078 1.064C43.2664 2.408 42.8398 3.67733 42.3278 4.872C40.9838 5 39.5971 5.064 38.1678 5.064C38.3811 4.46667 38.5624 3.76267 38.7118 2.952ZM57.8425 7.432L60.8505 7.624C61.1492 7.624 61.3732 7.61333 61.5225 7.592L60.0185 10.408H59.7305C59.3252 10.408 58.7492 10.3013 58.0025 10.088C57.2558 9.85333 56.7225 9.736 56.4025 9.736C55.5278 9.736 54.8345 10.3013 54.3225 11.432C54.2372 12.4773 54.1732 13.5227 54.1305 14.568C55.2398 14.7813 56.1145 14.888 56.7545 14.888H57.0425C57.9598 14.888 58.6852 14.6853 59.2185 14.28C59.7732 13.8747 60.1678 13.1493 60.4025 12.104L64.2425 12.264C63.9225 14.0987 63.4958 15.6773 62.9625 17H47.2505C46.8238 14.12 46.6105 11.2613 46.6105 8.424C46.6105 5.58667 46.7598 3.112 47.0585 1H64.2105C63.8265 3.304 63.4852 4.92533 63.1865 5.864C61.9278 5.928 60.7758 5.97067 59.7305 5.992C59.9012 5.50133 59.9865 5.04267 59.9865 4.616C59.9865 3.592 59.2185 3.08 57.6825 3.08C57.1065 3.08 56.4665 3.144 55.7625 3.272C55.2932 5.29867 54.9305 7.08 54.6745 8.616C55.5278 7.82667 56.5838 7.432 57.8425 7.432ZM86.7033 1C86.8313 3.24 86.8953 5.608 86.8953 8.104C86.8953 10.5787 86.7886 13.544 86.5753 17H83.5033C79.3646 14.7813 75.5673 11.7627 72.1113 7.944C72.2819 9.37333 72.3673 10.8453 72.3673 12.36C72.3673 13.8533 72.3139 15.4 72.2073 17H68.4633C68.8899 14.376 69.1033 11.9547 69.1033 9.736C69.1033 7.496 68.9966 5.72533 68.7833 4.424C67.9299 3.144 67.2579 2.00267 66.7673 1H75.8553C76.7513 2.536 77.9673 4.12533 79.5033 5.768C81.0606 7.38933 82.5433 8.65867 83.9513 9.576C83.9513 6.46133 83.5993 3.60267 82.8953 1H86.7033ZM104.01 3.08C103.456 6.45067 103.178 9.20267 103.178 11.336C103.178 13.4693 103.264 15.3573 103.434 17H96.4583C95.7329 13.608 95.3703 9.96 95.3703 6.056C95.3703 5.39467 95.3916 4.40267 95.4343 3.08C93.6209 3.61333 92.5116 4.84 92.1063 6.76L88.9383 6.568L90.0903 1H111.37C110.944 3.34667 110.453 5.26667 109.898 6.76L106.666 6.568C106.752 6.22667 106.794 5.88533 106.794 5.544C106.794 4.712 106.538 4.09333 106.026 3.688C105.514 3.28267 104.842 3.08 104.01 3.08ZM124.749 7.432L127.757 7.624C128.055 7.624 128.279 7.61333 128.429 7.592L126.925 10.408H126.637C126.231 10.408 125.655 10.3013 124.909 10.088C124.162 9.85333 123.629 9.736 123.309 9.736C122.434 9.736 121.741 10.3013 121.229 11.432C121.143 12.4773 121.079 13.5227 121.037 14.568C122.146 14.7813 123.021 14.888 123.661 14.888H123.949C124.866 14.888 125.591 14.6853 126.125 14.28C126.679 13.8747 127.074 13.1493 127.309 12.104L131.149 12.264C130.829 14.0987 130.402 15.6773 129.869 17H114.157C113.73 14.12 113.517 11.2613 113.517 8.424C113.517 5.58667 113.666 3.112 113.965 1H131.117C130.733 3.304 130.391 4.92533 130.093 5.864C128.834 5.928 127.682 5.97067 126.637 5.992C126.807 5.50133 126.893 5.04267 126.893 4.616C126.893 3.592 126.125 3.08 124.589 3.08C124.013 3.08 123.373 3.144 122.669 3.272C122.199 5.29867 121.837 7.08 121.581 8.616C122.434 7.82667 123.49 7.432 124.749 7.432ZM152.842 6.568L152.81 7.656C151.103 8.57333 148.97 9.288 146.41 9.8C148.244 10.2907 150.015 10.536 151.722 10.536H152.394C153.567 12.264 154.324 14.4187 154.666 17H146.378C146.164 15.5067 145.727 14.2267 145.066 13.16C144.426 12.072 143.636 11.336 142.698 10.952C142.676 11.3147 142.666 12.04 142.666 13.128C142.666 14.216 142.73 15.5067 142.858 17H135.882C135.263 13.9067 134.954 11.0373 134.954 8.392C134.954 5.72533 135.103 3.26133 135.402 1H152.106C152.596 3.15467 152.842 5.01067 152.842 6.568ZM143.37 3.144C143.114 5.02133 142.922 6.86667 142.794 8.68C143.967 8.50933 144.927 8.09333 145.674 7.432C145.268 6.00267 144.5 4.57333 143.37 3.144Z" fill="#AB35FB" fill-opacity="0.8"/>
<path d="M5.25293 39.7539C5.18913 40.2415 5.06152 40.7018 4.87012 41.1348C4.67871 41.5677 4.44857 41.9437 4.17969 42.2627C3.91081 42.5817 3.63509 42.8529 3.35254 43.0762C3.07454 43.304 2.78743 43.4932 2.49121 43.6436C2.33626 43.7165 2.15625 43.7415 1.95117 43.7188C1.74609 43.696 1.55924 43.639 1.39062 43.5479L0.645508 43.1377C0.527018 43.0693 0.429036 43.0078 0.351562 42.9531C0.269531 42.8984 0.208008 42.8506 0.166992 42.8096C0.121419 42.7686 0.0986328 42.7275 0.0986328 42.6865C0.0986328 42.6455 0.100911 42.6136 0.105469 42.5908C0.110026 42.568 0.139648 42.5407 0.194336 42.5088C0.249023 42.4769 0.290039 42.4541 0.317383 42.4404C0.344727 42.4268 0.401693 42.4017 0.488281 42.3652C0.57487 42.3333 0.631836 42.3128 0.65918 42.3037C1.58431 41.9209 2.37272 41.4492 3.02441 40.8887C3.68066 40.3281 4.00879 39.8245 4.00879 39.3779C4.00879 39.2093 3.91536 38.9814 3.72852 38.6943C3.54622 38.4027 3.22949 37.9743 2.77832 37.4092L4.06348 35.584C4.07715 35.6022 4.2002 35.7799 4.43262 36.1172C4.6696 36.4499 4.861 36.7119 5.00684 36.9033C5.30306 37.2861 5.68359 37.4775 6.14844 37.4775H6.28516C6.39909 37.4775 6.45605 37.8079 6.45605 38.4688V39.0293C6.45605 39.6764 6.39909 40 6.28516 40H6.11426C5.76335 40 5.47624 39.918 5.25293 39.7539ZM5.88867 39.0293V38.3799C5.88867 37.7783 6.014 37.4775 6.26465 37.4775H8.00781C8.12174 37.4775 8.17871 37.7783 8.17871 38.3799V39.0293C8.17871 39.6764 8.12174 40 8.00781 40H6.26465C6.014 40 5.88867 39.6764 5.88867 39.0293ZM11.2686 31.6465L12.3213 32.6924L11.2686 33.7451L10.2158 32.6924L11.2686 31.6465ZM9.05371 31.6465L10.1064 32.6924L9.05371 33.7451L8.00098 32.6924L9.05371 31.6465ZM7.94629 37.4775H8.68457C9.20866 37.4775 9.61882 37.391 9.91504 37.2178C10.2158 37.0446 10.3844 36.7848 10.4209 36.4385L10.5371 35.3447H11.5146L11.6377 36.418C11.6833 36.7871 11.7972 37.056 11.9795 37.2246C12.1663 37.3932 12.4603 37.4775 12.8613 37.4775H12.9912C13.1051 37.4775 13.1621 37.7783 13.1621 38.3799V39.0293C13.1621 39.6764 13.1051 40 12.9912 40H12.8477C12.4102 40 12.0501 39.9111 11.7676 39.7334C11.485 39.5557 11.2253 39.2708 10.9883 38.8789C10.7422 39.248 10.4163 39.5283 10.0107 39.7197C9.60514 39.9066 9.15169 40 8.65039 40H7.94629C7.69564 40 7.57031 39.6491 7.57031 38.9473V38.4688C7.57031 37.8079 7.69564 37.4775 7.94629 37.4775ZM12.5469 39.0293V38.3799C12.5469 37.7783 12.6722 37.4775 12.9229 37.4775H14.666C14.7799 37.4775 14.8369 37.7783 14.8369 38.3799V39.0293C14.8369 39.6764 14.7799 40 14.666 40H12.9229C12.6722 40 12.5469 39.6764 12.5469 39.0293ZM14.6045 40C14.3538 40 14.2285 39.6491 14.2285 38.9473V38.4688C14.2285 37.8079 14.3538 37.4775 14.6045 37.4775H15.3291C16.2269 37.4775 16.7122 37.1312 16.7852 36.4385L16.9014 35.3447H17.9199L18.043 36.418C18.0885 36.7871 18.2025 37.056 18.3848 37.2246C18.5671 37.3932 18.8542 37.4775 19.2461 37.4775H19.376C19.4899 37.4775 19.5469 37.7783 19.5469 38.3799V39.0293C19.5469 39.6764 19.4899 40 19.376 40H19.2324C18.7949 40 18.4349 39.9111 18.1523 39.7334C17.8698 39.5557 17.61 39.2708 17.373 38.8789C16.8763 39.6263 16.1836 40 15.2949 40H14.6045ZM16.9355 31.585L18.0703 32.7197L16.9355 33.8477L15.8076 32.7197L16.9355 31.585ZM18.9316 39.0293V38.3799C18.9316 37.7783 19.057 37.4775 19.3076 37.4775H21.0508C21.1647 37.4775 21.2217 37.7783 21.2217 38.3799V39.0293C21.2217 39.6764 21.1647 40 21.0508 40H19.3076C19.057 40 18.9316 39.6764 18.9316 39.0293ZM20.6133 39.0293V38.3799C20.6133 37.7783 20.7386 37.4775 20.9893 37.4775H22.7324C22.8464 37.4775 22.9033 37.7783 22.9033 38.3799V39.0293C22.9033 39.6764 22.8464 40 22.7324 40H20.9893C20.7386 40 20.6133 39.6764 20.6133 39.0293ZM30.2588 37.4707C30.5413 37.4707 30.7738 37.416 30.9561 37.3066C31.1383 37.1927 31.2295 37.0241 31.2295 36.8008C31.2295 36.7051 31.2135 36.6071 31.1816 36.5068C31.1497 36.4066 31.111 36.3177 31.0654 36.2402C31.0244 36.1628 30.9515 36.0329 30.8467 35.8506C30.7464 35.6683 30.6553 35.4997 30.5732 35.3447L31.6123 34.0254C31.6943 33.9206 31.7559 33.8682 31.7969 33.8682C31.8424 33.8682 31.9017 33.9229 31.9746 34.0322C32.4395 34.7796 32.6719 35.6136 32.6719 36.5342C32.6719 36.9307 32.6172 37.3294 32.5078 37.7305C32.403 38.1315 32.2526 38.5029 32.0566 38.8447C31.8607 39.1865 31.6055 39.4645 31.291 39.6787C30.9766 39.8929 30.6325 40 30.2588 40C29.5479 40 28.9873 39.6354 28.5771 38.9062C28.1214 39.6354 27.5973 40 27.0049 40C26.2301 40 25.6491 39.6491 25.2617 38.9473C24.7148 39.6491 23.9743 40 23.04 40H22.6709C22.4202 40 22.2949 39.6491 22.2949 38.9473V38.4688C22.2949 37.8079 22.4202 37.4775 22.6709 37.4775H23.1016C24.1133 37.4775 24.6533 37.1585 24.7217 36.5205L24.8174 35.5156H25.7676L25.8633 36.4863C25.9316 37.138 26.3122 37.4639 27.0049 37.4639C27.6383 37.4639 27.9847 37.154 28.0439 36.5342L28.1328 35.5156H29.083L29.1924 36.4932C29.2653 37.1449 29.6208 37.4707 30.2588 37.4707ZM45.6191 36.3086C44.6667 36.3086 43.8919 36.7096 43.2949 37.5117L44.9834 37.9766C45.4391 38.1042 45.765 38.2705 45.9609 38.4756C46.1615 38.6761 46.2617 38.9746 46.2617 39.3711C46.2617 40.1732 46.0544 40.8932 45.6396 41.5312C45.2249 42.1693 44.6621 42.6637 43.9512 43.0146C43.2402 43.3701 42.4495 43.5479 41.5791 43.5479C40.2803 43.5479 39.264 43.2266 38.5303 42.584C37.8011 41.946 37.4365 41.0254 37.4365 39.8223C37.4365 38.724 37.7236 37.5801 38.2979 36.3906L39.2344 36.7119C38.9382 37.6051 38.79 38.3298 38.79 38.8857C38.79 40.4124 39.7357 41.1758 41.627 41.1758C42.0462 41.1758 42.445 41.1439 42.8232 41.0801C43.2015 41.0208 43.516 40.9434 43.7666 40.8477C44.0173 40.7565 44.236 40.6585 44.4229 40.5537C44.6097 40.4489 44.7464 40.3532 44.833 40.2666C44.9196 40.1846 44.9629 40.1185 44.9629 40.0684C44.9629 40.0319 44.931 40.0046 44.8672 39.9863L42.5635 39.3574C42.249 39.2708 42.0417 39.1683 41.9414 39.0498C41.8457 38.9313 41.7979 38.7422 41.7979 38.4824C41.7979 37.972 41.8981 37.4548 42.0986 36.9307C42.2992 36.4066 42.5635 35.9395 42.8916 35.5293C43.2197 35.1191 43.6139 34.7842 44.0742 34.5244C44.5345 34.2601 45.0062 34.1279 45.4893 34.1279C45.9222 34.1279 46.3324 34.2236 46.7197 34.415L46.4121 36.377C46.1022 36.3314 45.8379 36.3086 45.6191 36.3086ZM47.6084 31.8311L49.2422 30.8672C49.388 30.7715 49.4906 30.735 49.5498 30.7578C49.6136 30.7806 49.6501 30.8763 49.6592 31.0449C49.7503 32.8268 49.7959 34.2738 49.7959 35.3857C49.7959 37.7874 49.6751 39.1774 49.4336 39.5557C49.3242 39.7243 49.1693 39.8405 48.9688 39.9043C48.7728 39.9681 48.5062 40 48.1689 40C48.1644 38.3275 48.1234 36.8464 48.0459 35.5566C47.973 34.2624 47.8271 33.0205 47.6084 31.8311ZM47.6289 28.208C47.875 28.208 48.2122 28.2354 48.6406 28.29C49.0736 28.3402 49.3812 28.3652 49.5635 28.3652C50.0557 28.3652 50.4408 28.3288 50.7188 28.2559C51.056 28.1602 51.2109 28.2103 51.1836 28.4062C51.1608 28.5566 51.0423 28.7708 50.8281 29.0488C50.6914 29.2266 50.5684 29.361 50.459 29.4521C50.3496 29.5433 50.1787 29.623 49.9463 29.6914C49.7139 29.7552 49.4154 29.7871 49.0508 29.7871C48.7546 29.7871 48.3809 29.7689 47.9297 29.7324C47.5286 29.7507 47.1094 29.9557 46.6719 30.3477C46.4622 30.2109 46.3232 30.0947 46.2549 29.999C46.4691 29.3519 46.6742 28.8916 46.8701 28.6182C47.0615 28.3447 47.3145 28.208 47.6289 28.208ZM62.7842 38.6943C62.8206 40.2848 62.4993 41.5039 61.8203 42.3516C61.1458 43.2038 60.0977 43.6299 58.6758 43.6299C57.459 43.6299 56.4906 43.2972 55.7705 42.6318C55.0505 41.9665 54.6904 41.0573 54.6904 39.9043C54.6904 38.8288 54.9411 37.7578 55.4424 36.6914L56.3994 36.999C56.1624 37.8011 56.0439 38.4665 56.0439 38.9951C56.0439 39.7607 56.2786 40.3236 56.748 40.6836C57.222 41.0436 57.8783 41.2236 58.7168 41.2236C59.0859 41.2236 59.4232 41.1872 59.7285 41.1143C60.0384 41.0459 60.3164 40.9388 60.5625 40.793C60.8086 40.6471 61 40.4489 61.1367 40.1982C61.278 39.9476 61.3486 39.6559 61.3486 39.3232C61.3486 38.9814 61.3167 38.4551 61.2529 37.7441C61.1891 37.0286 61.0843 35.9668 60.9385 34.5586C60.7926 33.1458 60.6742 31.9427 60.583 30.9492L62.1006 29.9443C62.2829 29.8031 62.4059 29.7484 62.4697 29.7803C62.5335 29.8076 62.5677 29.9603 62.5723 30.2383L62.7842 38.6943ZM66.0723 34.7637C66.0768 35.1784 66.0814 35.4814 66.0859 35.6729C66.0905 35.8643 66.1019 36.0898 66.1201 36.3496C66.1429 36.6048 66.1748 36.7848 66.2158 36.8896C66.2568 36.9899 66.3138 37.097 66.3867 37.2109C66.4642 37.3203 66.5599 37.3932 66.6738 37.4297C66.7878 37.4616 66.929 37.4775 67.0977 37.4775H67.2344C67.3483 37.4775 67.4053 37.7783 67.4053 38.3799V39.0293C67.4053 39.6764 67.3483 40 67.2344 40H67.002C66.7604 40 66.5394 39.984 66.3389 39.9521C66.1383 39.9157 65.9583 39.861 65.7988 39.7881C65.6439 39.7152 65.5026 39.6331 65.375 39.542C65.252 39.4508 65.1426 39.3346 65.0469 39.1934C64.9557 39.0475 64.876 38.9062 64.8076 38.7695C64.7393 38.6328 64.6823 38.4642 64.6367 38.2637C64.5911 38.0586 64.5547 37.8672 64.5273 37.6895C64.5 37.5117 64.4772 37.2952 64.459 37.04C64.4453 36.7848 64.4362 36.5547 64.4316 36.3496C64.4271 36.14 64.4225 35.8848 64.418 35.584C64.4043 33.5104 64.2721 31.9518 64.0215 30.9082L65.5732 29.876C65.7191 29.7757 65.8148 29.7438 65.8604 29.7803C65.9105 29.8167 65.9424 29.9466 65.9561 30.1699C66.0244 31.2682 66.0632 32.7995 66.0723 34.7637ZM66.7969 39.0293V38.3799C66.7969 37.7783 66.9222 37.4775 67.1729 37.4775H68.916C69.0299 37.4775 69.0869 37.7783 69.0869 38.3799V39.0293C69.0869 39.6764 69.0299 40 68.916 40H67.1729C66.9222 40 66.7969 39.6764 66.7969 39.0293ZM72.1768 31.6465L73.2295 32.6924L72.1768 33.7451L71.124 32.6924L72.1768 31.6465ZM69.9619 31.6465L71.0146 32.6924L69.9619 33.7451L68.9092 32.6924L69.9619 31.6465ZM68.8545 37.4775H69.5928C70.1169 37.4775 70.527 37.391 70.8232 37.2178C71.124 37.0446 71.2926 36.7848 71.3291 36.4385L71.4453 35.3447H72.4229L72.5459 36.418C72.5915 36.7871 72.7054 37.056 72.8877 37.2246C73.0745 37.3932 73.3685 37.4775 73.7695 37.4775H73.8994C74.0133 37.4775 74.0703 37.7783 74.0703 38.3799V39.0293C74.0703 39.6764 74.0133 40 73.8994 40H73.7559C73.3184 40 72.9583 39.9111 72.6758 39.7334C72.3932 39.5557 72.1335 39.2708 71.8965 38.8789C71.6504 39.248 71.3245 39.5283 70.9189 39.7197C70.5133 39.9066 70.0599 40 69.5586 40H68.8545C68.6038 40 68.4785 39.6491 68.4785 38.9473V38.4688C68.4785 37.8079 68.6038 37.4775 68.8545 37.4775ZM73.4551 39.0293V38.3799C73.4551 37.7783 73.5804 37.4775 73.8311 37.4775H75.5742C75.6882 37.4775 75.7451 37.7783 75.7451 38.3799V39.0293C75.7451 39.6764 75.6882 40 75.5742 40H73.8311C73.5804 40 73.4551 39.6764 73.4551 39.0293ZM78.2676 41.0732L79.3203 42.1191L78.2676 43.1719L77.2148 42.1191L78.2676 41.0732ZM76.0527 41.0732L77.1055 42.1191L76.0527 43.1719L75 42.1191L76.0527 41.0732ZM75.5195 37.4775H76.2578C76.7819 37.4775 77.1921 37.391 77.4883 37.2178C77.7891 37.0446 77.9577 36.7848 77.9941 36.4385L78.1104 35.3447H79.0879L79.2109 36.418C79.2565 36.7871 79.3704 37.056 79.5527 37.2246C79.7396 37.3932 80.0335 37.4775 80.4346 37.4775H80.5645C80.6784 37.4775 80.7354 37.7783 80.7354 38.3799V39.0293C80.7354 39.6764 80.6784 40 80.5645 40H80.4209C79.9834 40 79.6234 39.9111 79.3408 39.7334C79.0583 39.5557 78.7985 39.2708 78.5615 38.8789C78.3154 39.248 77.9896 39.5283 77.584 39.7197C77.1784 39.9066 76.7249 40 76.2236 40H75.5195C75.2689 40 75.1436 39.6491 75.1436 38.9473V38.4688C75.1436 37.8079 75.2689 37.4775 75.5195 37.4775ZM80.1133 39.0293V38.3799C80.1133 37.7783 80.2386 37.4775 80.4893 37.4775H82.2324C82.3464 37.4775 82.4033 37.7783 82.4033 38.3799V39.0293C82.4033 39.6764 82.3464 40 82.2324 40H80.4893C80.2386 40 80.1133 39.6764 80.1133 39.0293ZM86.0811 41.1006L87.2158 42.2354L86.0811 43.3633L84.9531 42.2354L86.0811 41.1006ZM83.5449 36.377L82.7314 35.9531C82.8727 35.5612 83.0186 35.2194 83.1689 34.9277C83.3239 34.6361 83.5062 34.3672 83.7158 34.1211C83.9255 33.875 84.1647 33.6882 84.4336 33.5605C84.707 33.4284 85.0078 33.3623 85.3359 33.3623C85.8099 33.3623 86.5049 33.5811 87.4209 34.0186C88.2777 34.4242 88.9271 34.6976 89.3691 34.8389C89.8158 34.9801 90.2988 35.0508 90.8184 35.0508C90.9141 35.0508 90.9733 35.0599 90.9961 35.0781C91.0234 35.0918 91.028 35.1283 91.0098 35.1875L90.5176 36.8418C90.0482 36.9102 89.6016 37.0537 89.1777 37.2725C89.2826 37.4137 89.5514 37.4844 89.9844 37.4844L91.4404 37.4775C91.5544 37.4775 91.6113 37.7783 91.6113 38.3799V39.0293C91.6113 39.6764 91.5544 40 91.4404 40H90.6201C89.0889 40 88.1956 39.3118 87.9404 37.9355C87.4801 38.2227 87.0723 38.4665 86.7168 38.667C86.3659 38.8675 85.958 39.0817 85.4932 39.3096C85.0329 39.5329 84.5885 39.7038 84.1602 39.8223C83.7363 39.9408 83.3444 40 82.9844 40H82.1709C81.9202 40 81.7949 39.6491 81.7949 38.9473V38.4688C81.7949 37.8079 81.9202 37.4775 82.1709 37.4775H83.2236C84.8415 37.4775 86.3796 37.0902 87.8379 36.3154C87.2135 36.1149 86.7441 35.9577 86.4297 35.8438C85.8053 35.6159 85.3792 35.502 85.1514 35.502C84.5589 35.502 84.0234 35.7936 83.5449 36.377ZM90.9961 39.0293V38.3799C90.9961 37.7783 91.1214 37.4775 91.3721 37.4775H93.1152C93.2292 37.4775 93.2861 37.7783 93.2861 38.3799V39.0293C93.2861 39.6764 93.2292 40 93.1152 40H91.3721C91.1214 40 90.9961 39.6764 90.9961 39.0293ZM95.8086 41.0732L96.8613 42.1191L95.8086 43.1719L94.7559 42.1191L95.8086 41.0732ZM93.5938 41.0732L94.6465 42.1191L93.5938 43.1719L92.541 42.1191L93.5938 41.0732ZM97.0186 36.4658C97.0186 37.5413 96.7451 38.4004 96.1982 39.043C95.6559 39.681 94.8789 40 93.8672 40H93.0605C92.8099 40 92.6846 39.6491 92.6846 38.9473V38.4688C92.6846 37.8079 92.8099 37.4775 93.0605 37.4775H93.9629C94.2044 37.4775 94.4118 37.4707 94.585 37.457C94.7581 37.4434 94.9222 37.4183 95.0771 37.3818C95.2367 37.3454 95.3574 37.2907 95.4395 37.2178C95.5215 37.1449 95.5625 37.0514 95.5625 36.9375C95.5625 36.7005 95.3665 36.1491 94.9746 35.2832C94.9701 35.265 94.9655 35.2513 94.9609 35.2422C94.9564 35.2285 94.9495 35.2148 94.9404 35.2012C94.9313 35.1829 94.9245 35.167 94.9199 35.1533L95.959 33.8271C96.0456 33.7132 96.1094 33.6562 96.1504 33.6562C96.1914 33.6562 96.2484 33.7155 96.3213 33.834C96.7861 34.6042 97.0186 35.4814 97.0186 36.4658ZM99.1787 36.5957C99.1696 36.6367 99.1719 36.7256 99.1855 36.8623C99.2038 37.0856 99.3268 37.2428 99.5547 37.334C99.7871 37.4206 100.127 37.4639 100.573 37.4639C101.243 37.4639 101.765 37.4137 102.139 37.3135C102.517 37.2132 102.706 37.0856 102.706 36.9307C102.706 36.68 102.412 36.304 101.824 35.8027C101.236 35.3014 100.562 34.8001 99.8008 34.2988L100.525 32.4736C100.603 32.2822 100.742 32.264 100.942 32.4189C101.94 33.1709 102.688 33.916 103.185 34.6543C103.686 35.3926 103.937 36.1833 103.937 37.0264C103.937 38.0016 103.647 38.7399 103.068 39.2412C102.494 39.7425 101.642 39.9932 100.512 39.9932C98.8665 39.9932 98.0439 39.2458 98.0439 37.751C98.0439 37.3955 98.1123 36.9808 98.249 36.5068L99.1787 36.5957ZM111.285 39.9658C110.474 39.9658 109.85 39.7425 109.412 39.2959C108.975 38.8447 108.756 38.2135 108.756 37.4023C108.756 36.2858 109.273 35.0645 110.308 33.7383C110.467 33.5286 110.659 33.4648 110.882 33.5469C111.269 33.6882 111.636 33.875 111.982 34.1074C112.329 34.3398 112.639 34.6064 112.912 34.9072C113.19 35.2035 113.409 35.543 113.568 35.9258C113.732 36.304 113.814 36.6937 113.814 37.0947C113.814 37.9287 113.587 38.6169 113.131 39.1592C112.675 39.6969 112.06 39.9658 111.285 39.9658ZM110.786 35.7344C110.253 36.4316 109.986 36.901 109.986 37.1426C109.986 37.4889 110.403 37.6621 111.237 37.6621C111.657 37.6621 111.987 37.6074 112.229 37.498C112.47 37.3841 112.591 37.2178 112.591 36.999C112.591 36.8851 112.548 36.7734 112.461 36.6641C112.379 36.5547 112.283 36.4613 112.174 36.3838C112.064 36.3018 111.914 36.2152 111.723 36.124C111.531 36.0329 111.376 35.9645 111.258 35.9189C111.139 35.8688 110.982 35.8073 110.786 35.7344ZM116.795 34.7637C116.799 35.1784 116.804 35.4814 116.809 35.6729C116.813 35.8643 116.825 36.0898 116.843 36.3496C116.866 36.6048 116.897 36.7848 116.938 36.8896C116.979 36.9899 117.036 37.097 117.109 37.2109C117.187 37.3203 117.283 37.3932 117.396 37.4297C117.51 37.4616 117.652 37.4775 117.82 37.4775H117.957C118.071 37.4775 118.128 37.7783 118.128 38.3799V39.0293C118.128 39.6764 118.071 40 117.957 40H117.725C117.483 40 117.262 39.984 117.062 39.9521C116.861 39.9157 116.681 39.861 116.521 39.7881C116.367 39.7152 116.225 39.6331 116.098 39.542C115.975 39.4508 115.865 39.3346 115.77 39.1934C115.678 39.0475 115.599 38.9062 115.53 38.7695C115.462 38.6328 115.405 38.4642 115.359 38.2637C115.314 38.0586 115.277 37.8672 115.25 37.6895C115.223 37.5117 115.2 37.2952 115.182 37.04C115.168 36.7848 115.159 36.5547 115.154 36.3496C115.15 36.14 115.145 35.8848 115.141 35.584C115.127 33.5104 114.995 31.9518 114.744 30.9082L116.296 29.876C116.442 29.7757 116.537 29.7438 116.583 29.7803C116.633 29.8167 116.665 29.9466 116.679 30.1699C116.747 31.2682 116.786 32.7995 116.795 34.7637ZM117.52 39.0293V38.3799C117.52 37.7783 117.645 37.4775 117.896 37.4775H119.639C119.753 37.4775 119.81 37.7783 119.81 38.3799V39.0293C119.81 39.6764 119.753 40 119.639 40H117.896C117.645 40 117.52 39.6764 117.52 39.0293ZM121.915 33.3213C122.576 33.9001 123.421 34.6748 124.451 35.6455C125.786 36.8669 126.748 37.4775 127.336 37.4775H127.404C127.518 37.4775 127.575 37.7783 127.575 38.3799V39.0293C127.575 39.6764 127.518 40 127.404 40H127.322C126.178 40 125.069 39.3255 123.993 37.9766C123.856 38.6055 123.467 39.0999 122.824 39.46C122.182 39.82 121.391 40 120.452 40H119.577C119.326 40 119.201 39.64 119.201 38.9199V38.4414C119.201 37.7988 119.326 37.4775 119.577 37.4775H120.452C121.277 37.4775 121.895 37.4274 122.305 37.3271C122.719 37.2223 122.927 37.0378 122.927 36.7734C122.927 36.5501 122.574 36.1605 121.867 35.6045C121.557 35.3584 120.858 34.8457 119.769 34.0664L120.192 32.0225L125.449 30.1699C125.554 30.1335 125.618 30.1312 125.641 30.1631C125.668 30.1904 125.673 30.2702 125.654 30.4023L125.401 32.1318L121.915 33.3213ZM125.736 28.6455L125.613 29.3428L120.309 31.291L120.473 30.3818L125.559 28.4746C125.636 28.4518 125.688 28.4541 125.716 28.4814C125.743 28.5042 125.75 28.5589 125.736 28.6455ZM126.967 39.0293V38.3799C126.967 37.7783 127.092 37.4775 127.343 37.4775H129.086C129.2 37.4775 129.257 37.7783 129.257 38.3799V39.0293C129.257 39.6764 129.2 40 129.086 40H127.343C127.092 40 126.967 39.6764 126.967 39.0293ZM134.78 30.2314L135.771 31.2227L134.78 32.2207L133.782 31.2227L134.78 30.2314ZM135.901 31.8926L136.893 32.8906L135.901 33.8818L134.903 32.8906L135.901 31.8926ZM133.652 31.8926L134.65 32.8906L133.652 33.8818L132.661 32.8906L133.652 31.8926ZM136.612 37.4707C136.895 37.4707 137.127 37.416 137.31 37.3066C137.492 37.1927 137.583 37.0241 137.583 36.8008C137.583 36.7051 137.567 36.6071 137.535 36.5068C137.503 36.4066 137.465 36.3177 137.419 36.2402C137.378 36.1628 137.305 36.0329 137.2 35.8506C137.1 35.6683 137.009 35.4997 136.927 35.3447L137.966 34.0254C138.048 33.9206 138.109 33.8682 138.15 33.8682C138.196 33.8682 138.255 33.9229 138.328 34.0322C138.793 34.7796 139.025 35.6136 139.025 36.5342C139.025 36.9307 138.971 37.3294 138.861 37.7305C138.757 38.1315 138.606 38.5029 138.41 38.8447C138.214 39.1865 137.959 39.4645 137.645 39.6787C137.33 39.8929 136.986 40 136.612 40C135.901 40 135.341 39.6354 134.931 38.9062C134.475 39.6354 133.951 40 133.358 40C132.584 40 132.003 39.6491 131.615 38.9473C131.068 39.6491 130.328 40 129.394 40H129.024C128.774 40 128.648 39.6491 128.648 38.9473V38.4688C128.648 37.8079 128.774 37.4775 129.024 37.4775H129.455C130.467 37.4775 131.007 37.1585 131.075 36.5205L131.171 35.5156H132.121L132.217 36.4863C132.285 37.138 132.666 37.4639 133.358 37.4639C133.992 37.4639 134.338 37.154 134.397 36.5342L134.486 35.5156H135.437L135.546 36.4932C135.619 37.1449 135.974 37.4707 136.612 37.4707ZM143.182 39.9932C142.949 40.0251 142.671 40.041 142.348 40.041C141.623 40.0319 141.069 39.8473 140.687 39.4873C140.304 39.1273 140.112 38.6055 140.112 37.9219C140.112 37.5436 140.162 37.154 140.263 36.7529C140.368 36.3473 140.511 35.9691 140.693 35.6182C140.88 35.2627 141.122 34.971 141.418 34.7432C141.719 34.5153 142.045 34.4014 142.396 34.4014C142.801 34.4014 143.157 34.5199 143.462 34.7568C143.772 34.9893 144.013 35.3037 144.187 35.7002C144.36 36.0921 144.487 36.516 144.569 36.9717C144.651 37.4229 144.692 37.9014 144.692 38.4072C144.692 39.0133 144.631 39.5785 144.508 40.1025C144.385 40.6312 144.23 41.0778 144.043 41.4424C143.856 41.8115 143.631 42.1465 143.366 42.4473C143.102 42.748 142.849 42.9873 142.607 43.165C142.366 43.3473 142.111 43.5068 141.842 43.6436C141.687 43.7165 141.507 43.7415 141.302 43.7188C141.097 43.696 140.91 43.639 140.741 43.5479L139.996 43.1377C139.878 43.0693 139.777 43.0078 139.695 42.9531C139.618 42.8984 139.559 42.8506 139.518 42.8096C139.472 42.7686 139.449 42.7275 139.449 42.6865C139.449 42.6455 139.451 42.6136 139.456 42.5908C139.461 42.568 139.49 42.5407 139.545 42.5088C139.604 42.4769 139.645 42.4541 139.668 42.4404C139.695 42.4268 139.752 42.4017 139.839 42.3652C139.925 42.3333 139.982 42.3128 140.01 42.3037C140.725 42.0075 141.379 41.6406 141.972 41.2031C142.564 40.7702 142.967 40.3669 143.182 39.9932ZM141.309 37.0674C141.309 37.4001 141.698 37.5664 142.478 37.5664C142.778 37.5664 143.111 37.555 143.476 37.5322C143.366 37.1312 143.2 36.8213 142.977 36.6025C142.753 36.3838 142.484 36.2721 142.17 36.2676C141.938 36.2721 141.735 36.3473 141.562 36.4932C141.393 36.639 141.309 36.8304 141.309 37.0674ZM149.683 39.7539C149.619 40.2415 149.491 40.7018 149.3 41.1348C149.108 41.5677 148.878 41.9437 148.609 42.2627C148.34 42.5817 148.065 42.8529 147.782 43.0762C147.504 43.304 147.217 43.4932 146.921 43.6436C146.766 43.7165 146.586 43.7415 146.381 43.7188C146.176 43.696 145.989 43.639 145.82 43.5479L145.075 43.1377C144.957 43.0693 144.859 43.0078 144.781 42.9531C144.699 42.8984 144.638 42.8506 144.597 42.8096C144.551 42.7686 144.528 42.7275 144.528 42.6865C144.528 42.6455 144.531 42.6136 144.535 42.5908C144.54 42.568 144.569 42.5407 144.624 42.5088C144.679 42.4769 144.72 42.4541 144.747 42.4404C144.774 42.4268 144.831 42.4017 144.918 42.3652C145.005 42.3333 145.062 42.3128 145.089 42.3037C146.014 41.9209 146.802 41.4492 147.454 40.8887C148.11 40.3281 148.438 39.8245 148.438 39.3779C148.438 39.2093 148.345 38.9814 148.158 38.6943C147.976 38.4027 147.659 37.9743 147.208 37.4092L148.493 35.584C148.507 35.6022 148.63 35.7799 148.862 36.1172C149.099 36.4499 149.291 36.7119 149.437 36.9033C149.733 37.2861 150.113 37.4775 150.578 37.4775H150.715C150.829 37.4775 150.886 37.8079 150.886 38.4688V39.0293C150.886 39.6764 150.829 40 150.715 40H150.544C150.193 40 149.906 39.918 149.683 39.7539ZM153.586 28.6182L154.721 29.7529L153.586 30.8809L152.458 29.7529L153.586 28.6182ZM150.667 37.4775H152.171C152.9 37.4775 153.447 37.4502 153.812 37.3955C154.181 37.3363 154.44 37.2474 154.591 37.1289C154.741 37.0059 154.837 36.819 154.878 36.5684C154.395 36.6504 153.939 36.6914 153.511 36.6914C152.854 36.6914 152.371 36.5547 152.062 36.2812C151.752 36.0078 151.597 35.5817 151.597 35.0029C151.597 34.4287 151.679 33.9001 151.843 33.417C152.007 32.9339 152.255 32.5397 152.588 32.2344C152.921 31.929 153.306 31.7764 153.743 31.7764C154.144 31.7764 154.497 31.8994 154.803 32.1455C155.113 32.3916 155.352 32.722 155.521 33.1367C155.694 33.5514 155.821 34.0026 155.903 34.4902C155.99 34.9779 156.033 35.4951 156.033 36.042C156.033 37.4229 155.728 38.4277 155.117 39.0566C154.511 39.6855 153.54 40 152.205 40H150.667C150.435 40 150.318 39.6491 150.318 38.9473V38.4688C150.318 37.8079 150.435 37.4775 150.667 37.4775ZM153.675 34.8184C154.181 34.8184 154.568 34.7819 154.837 34.709C154.614 33.9479 154.203 33.5674 153.606 33.5674C153.374 33.5674 153.164 33.6449 152.978 33.7998C152.791 33.9502 152.697 34.1416 152.697 34.374C152.697 34.4971 152.743 34.5928 152.834 34.6611C152.93 34.7295 153.041 34.7728 153.169 34.791C153.301 34.8092 153.47 34.8184 153.675 34.8184Z" fill="#333333"/>
</svg>
