<svg width="104" height="104" viewBox="0 0 104 104" fill="none" xmlns="http://www.w3.org/2000/svg">
<path opacity="0.4" d="M43.568 11.5191C48.4269 7.37841 55.5732 7.3784 60.4321 11.5191L63.3901 14.0399C65.4722 15.8142 68.061 16.8866 70.788 17.1042L74.662 17.4133C81.0257 17.9212 86.0789 22.9744 86.5867 29.338L86.8959 33.2121C87.1135 35.9391 88.1858 38.5279 89.9602 40.61L92.481 43.568C96.6216 48.4269 96.6217 55.5732 92.481 60.4321L89.9602 63.3901C88.1858 65.4722 87.1135 68.061 86.8959 70.788L86.5867 74.662C86.0789 81.0257 81.0257 86.0789 74.662 86.5867L70.788 86.8959C68.061 87.1135 65.4722 88.1858 63.3901 89.9602L60.4321 92.481C55.5732 96.6217 48.4269 96.6217 43.568 92.481L40.61 89.9602C38.5279 88.1858 35.9391 87.1135 33.2121 86.8959L29.338 86.5867C22.9744 86.0789 17.9212 81.0257 17.4133 74.6621L17.1042 70.788C16.8866 68.061 15.8142 65.4722 14.0399 63.3901L11.5191 60.4321C7.3784 55.5732 7.37841 48.4269 11.5191 43.568L14.0399 40.61C15.8142 38.5279 16.8866 35.9391 17.1042 33.2121L17.4133 29.338C17.9212 22.9744 22.9744 17.9212 29.338 17.4133L33.2121 17.1042C35.9391 16.8866 38.5279 15.8142 40.61 14.0399L43.568 11.5191Z" fill="white"/>
<path d="M43.3334 39.0001C43.3334 41.3933 41.3933 43.3334 39 43.3334C36.6068 43.3334 34.6667 41.3933 34.6667 39.0001C34.6667 36.6068 36.6068 34.6667 39 34.6667C41.3933 34.6667 43.3334 36.6068 43.3334 39.0001Z" fill="white"/>
<path d="M69.3334 65.0001C69.3334 67.3933 67.3933 69.3334 65 69.3334C62.6068 69.3334 60.6667 67.3933 60.6667 65.0001C60.6667 62.6068 62.6068 60.6667 65 60.6667C67.3933 60.6667 69.3334 62.6068 69.3334 65.0001Z" fill="white"/>
<path fill-rule="evenodd" clip-rule="evenodd" d="M67.2981 36.7019C68.5673 37.9711 68.5673 40.0289 67.2981 41.2981L41.2981 67.2981C40.0289 68.5673 37.9711 68.5673 36.7019 67.2981C35.4327 66.0289 35.4327 63.9711 36.7019 62.7019L62.7019 36.7019C63.9711 35.4327 66.0289 35.4327 67.2981 36.7019Z" fill="white"/>
</svg>
