<svg width="40" height="40" viewBox="0 0 40 40" fill="none" xmlns="http://www.w3.org/2000/svg">
<path fill-rule="evenodd" clip-rule="evenodd" d="M30 3.33337H9.99998C6.31808 3.33337 3.33331 6.31814 3.33331 10V30C3.33331 33.6819 6.31808 36.6667 9.99998 36.6667H30C33.6819 36.6667 36.6666 33.6819 36.6666 30V10C36.6666 6.31814 33.6819 3.33337 30 3.33337ZM15.8242 24.0603C15.3081 23.6075 14.5225 23.6557 14.0657 24.1696C13.6071 24.6856 13.6536 25.4757 14.1695 25.9343L14.628 26.2866C14.8985 26.4748 15.2867 26.7176 15.7828 26.9582C16.775 27.4392 18.2113 27.9167 20 27.9167C21.7887 27.9167 23.225 27.4392 24.2172 26.9582C24.7133 26.7176 25.1015 26.4748 25.372 26.2866C25.5075 26.1924 25.6142 26.1113 25.6908 26.0505L25.8305 25.9343C26.3464 25.4757 26.3929 24.6856 25.9343 24.1696C25.4774 23.6557 24.6918 23.6075 24.1757 24.0603L23.9444 24.2343C23.7657 24.3586 23.4898 24.5325 23.1265 24.7086C22.4 25.0609 21.3363 25.4167 20 25.4167C18.6637 25.4167 17.6 25.0609 16.8735 24.7086C16.5102 24.5325 16.2343 24.3586 16.0556 24.2343L15.8242 24.0603ZM28.3333 16.6667C28.3333 17.5872 27.5871 18.3334 26.6666 18.3334C25.7462 18.3334 25 17.5872 25 16.6667C25 15.7462 25.7462 15 26.6666 15C27.5871 15 28.3333 15.7462 28.3333 16.6667ZM13.3333 18.3334C14.2538 18.3334 15 17.5872 15 16.6667C15 15.7462 14.2538 15 13.3333 15C12.4128 15 11.6666 15.7462 11.6666 16.6667C11.6666 17.5872 12.4128 18.3334 13.3333 18.3334Z" fill="#AB35FB" fill-opacity="0.8"/>
</svg>
