<svg width="16" height="16" viewBox="0 0 16 16" fill="none" xmlns="http://www.w3.org/2000/svg">
<path d="M6.68854 2.18092C7.225 1.05078 8.775 1.05078 9.31146 2.18092L10.2386 4.1341C10.4516 4.58288 10.8634 4.89394 11.3398 4.9659L13.4129 5.27911C14.6124 5.46034 15.0914 6.99301 14.2234 7.8727L12.7233 9.39304C12.3786 9.74237 12.2213 10.2457 12.3027 10.7389L12.6568 12.8857C12.8617 14.1278 11.6077 15.0751 10.5348 14.4886L8.68055 13.475C8.2545 13.2422 7.74551 13.2422 7.31945 13.475L5.46518 14.4886C4.39226 15.0751 3.13828 14.1278 3.34319 12.8857L3.69733 10.7389C3.7787 10.2457 3.62141 9.74237 3.27672 9.39304L1.77659 7.8727C0.90858 6.99301 1.38755 5.46034 2.58711 5.27911L4.66025 4.9659C5.1366 4.89394 5.54838 4.58288 5.76141 4.1341L6.68854 2.18092Z" fill="#F4C125"/>
</svg>
